<svg width="57" height="72" viewBox="0 0 57 72" fill="none" xmlns="http://www.w3.org/2000/svg">
<path d="M4.48875 21.5539V26.3357H9.10575V21.5539H12.257V33.646H9.10575V28.7725H4.48875V33.646H1.33746V21.5539H4.48875ZM14.9354 33.646V21.5539H24.3526V23.9906H18.0867V26.4457H23.0701V28.7359H18.0867V31.2092H24.5908V33.646H14.9354ZM29.6449 21.5539V33.646H26.4936V21.5539H29.6449ZM31.0623 33.646L35.3128 21.5539H39.0871L43.3193 33.646H40.0764L39.2519 30.9161H35.0747L34.2319 33.646H31.0623ZM36.6503 25.8594L35.7342 28.7725H38.5924L37.7129 25.8777L37.1816 23.9723H37.145L36.6503 25.8594ZM55.6269 21.5539V33.646H52.1275L48.3716 27.1052L47.4555 25.3097H47.4372L47.5105 27.545V33.646H44.7256V21.5539H48.225L51.9809 28.0946L52.897 29.8901H52.9153L52.842 27.6549V21.5539H55.6269Z" fill="white"/>
<rect x="1.51318" y="35.8142" width="19.6726" height="19.6726" fill="#458FFF"/>
<rect x="1.51318" width="19.6726" height="19.6726" fill="#458FFF"/>
<rect x="36.3186" y="35.8142" width="19.6726" height="19.6726" fill="#458FFF"/>
<rect x="36.3186" width="19.6726" height="19.6726" fill="#458FFF"/>
<path d="M10.2953 66.1796C10.1263 66.7936 9.85489 67.3007 9.48119 67.7011C9.10748 68.0926 8.66259 68.3818 8.14651 68.5687C7.63044 68.7466 7.06098 68.8356 6.43813 68.8356C5.54835 68.8356 4.77869 68.6577 4.12914 68.3017C3.4796 67.9369 2.98132 67.4164 2.63431 66.7402C2.28729 66.0639 2.11379 65.2498 2.11379 64.2977C2.11379 63.3457 2.28729 62.5315 2.63431 61.8553C2.98132 61.179 3.4796 60.663 4.12914 60.3071C4.77869 59.9422 5.5439 59.7598 6.42478 59.7598C7.03873 59.7598 7.60374 59.8488 8.11982 60.0268C8.63589 60.1958 9.07189 60.4583 9.4278 60.8142C9.78371 61.1701 10.0373 61.6284 10.1886 62.1889L8.17321 63.0031C8.04864 62.4514 7.84399 62.0733 7.55926 61.8686C7.28342 61.664 6.93196 61.5616 6.50486 61.5616C6.08667 61.5616 5.72185 61.664 5.41043 61.8686C5.1079 62.0733 4.87211 62.3802 4.70305 62.7895C4.54289 63.1899 4.46281 63.6927 4.46281 64.2977C4.46281 64.8939 4.53844 65.3966 4.68971 65.8059C4.84097 66.2152 5.06786 66.5222 5.37039 66.7268C5.68181 66.9315 6.06442 67.0338 6.51821 67.0338C6.94531 67.0338 7.30567 66.9181 7.5993 66.6868C7.90182 66.4465 8.10647 66.0817 8.21325 65.5924L10.2953 66.1796ZM10.6512 68.7021L13.7477 59.8933H16.4971L19.5802 68.7021H17.2178L15.4961 63.0431L15.109 61.6551H15.0823L14.722 63.0298L12.9602 68.7021H10.6512ZM12.6666 66.7135V65.1519H17.5648V66.7135H12.6666ZM28.546 59.8933V68.7021H25.9967L23.2606 63.9374L22.5933 62.6294H22.58L22.6334 64.2577V68.7021H20.6046V59.8933H23.1539L25.89 64.6581L26.5573 65.9661H26.5706L26.5173 64.3378V59.8933H28.546ZM29.5765 68.7021L32.6729 59.8933H35.4223L38.5054 68.7021H36.1431L34.4213 63.0431L34.0343 61.6551H34.0076L33.6472 63.0298L31.8855 68.7021H29.5765ZM31.5918 66.7135V65.1519H36.4901V66.7135H31.5918ZM43.267 59.8933C44.6462 59.8933 45.7005 60.2759 46.4302 61.0411C47.1687 61.8063 47.5379 62.8919 47.5379 64.2977C47.5379 65.7036 47.1687 66.7891 46.4302 67.5543C45.7005 68.3195 44.6462 68.7021 43.267 68.7021H39.5299V59.8933H43.267ZM43.0401 66.9671C43.7875 66.9671 44.3303 66.7446 44.6684 66.2997C45.0154 65.8459 45.1889 65.1786 45.1889 64.2977C45.1889 63.4168 45.0154 62.754 44.6684 62.3091C44.3303 61.8553 43.7875 61.6284 43.0401 61.6284H41.8255V66.9671H43.0401ZM47.8631 68.7021L50.9595 59.8933H53.7089L56.792 68.7021H54.4297L52.7079 63.0431L52.3209 61.6551H52.2942L51.9338 63.0298L50.172 68.7021H47.8631ZM49.8784 66.7135V65.1519H54.7767V66.7135H49.8784Z" fill="#FF5050"/>
</svg>
