<svg width="57" height="72" viewBox="0 0 57 72" fill="none" xmlns="http://www.w3.org/2000/svg">
<path d="M12.257 21.5539V33.646H9.10575V21.5539H12.257ZM4.48875 21.5539V33.646H1.33746V21.5539H4.48875ZM10.7913 26.3358V28.7725H2.87646V26.3358H10.7913ZM14.9354 33.646V21.5539H24.3526V23.9906H18.0867V26.4457H23.0701V28.7359H18.0867V31.2093H24.5908V33.646H14.9354ZM29.6449 21.5539V33.646H26.4936V21.5539H29.6449ZM31.0623 33.646L35.3128 21.5539H39.0871L43.3193 33.646H40.0764L37.7129 25.8777L37.1816 23.9723H37.145L36.6503 25.8594L34.2319 33.646H31.0623ZM33.8288 30.9161V28.7725H40.5528V30.9161H33.8288ZM55.6269 21.5539V33.646H52.1275L48.3716 27.1053L47.4555 25.3098H47.4372L47.5105 27.545V33.646H44.7256V21.5539H48.225L51.9809 28.0946L52.897 29.8901H52.9153L52.842 27.6549V21.5539H55.6269Z" fill="black"/>
<rect x="1.51328" y="35.8142" width="19.6726" height="19.6726" fill="#458FFF"/>
<rect x="1.51328" width="19.6726" height="19.6726" fill="#458FFF"/>
<rect x="36.3186" y="35.8142" width="19.6726" height="19.6726" fill="#458FFF"/>
<rect x="36.3186" width="19.6726" height="19.6726" fill="#458FFF"/>
<path d="M10.2954 66.1797C10.1264 66.7936 9.85499 67.3008 9.48128 67.7012C9.10757 68.0927 8.66268 68.3819 8.1466 68.5687C7.63053 68.7467 7.06107 68.8357 6.43822 68.8357C5.54844 68.8357 4.77878 68.6577 4.12924 68.3018C3.47969 67.937 2.98142 67.4165 2.6344 66.7402C2.28739 66.064 2.11388 65.2498 2.11388 64.2978C2.11388 63.3457 2.28739 62.5315 2.6344 61.8553C2.98142 61.1791 3.47969 60.663 4.12924 60.3071C4.77878 59.9423 5.54399 59.7599 6.42487 59.7599C7.03882 59.7599 7.60384 59.8489 8.11991 60.0268C8.63598 60.1959 9.07198 60.4584 9.42789 60.8143C9.7838 61.1702 10.0374 61.6284 10.1887 62.189L8.1733 63.0031C8.04873 62.4515 7.84408 62.0733 7.55935 61.8687C7.28351 61.664 6.93205 61.5617 6.50495 61.5617C6.08676 61.5617 5.72195 61.664 5.41052 61.8687C5.108 62.0733 4.8722 62.3803 4.70315 62.7896C4.54298 63.19 4.4629 63.6927 4.4629 64.2978C4.4629 64.8939 4.53854 65.3966 4.6898 65.8059C4.84106 66.2152 5.06796 66.5222 5.37048 66.7269C5.68191 66.9315 6.06451 67.0338 6.5183 67.0338C6.9454 67.0338 7.30576 66.9182 7.59939 66.6868C7.90191 66.4466 8.10656 66.0818 8.21334 65.5924L10.2954 66.1797ZM10.6513 68.7022L13.7477 59.8933H16.4972L19.5803 68.7022H17.2179L15.4962 63.0432L15.1091 61.6551H15.0824L14.7221 63.0298L12.9603 68.7022H10.6513ZM12.6667 66.7135V65.152H17.5649V66.7135H12.6667ZM28.546 59.8933V68.7022H25.9968L23.2607 63.9374L22.5934 62.6294H22.5801L22.6334 64.2577V68.7022H20.6047V59.8933H23.154L25.89 64.6581L26.5574 65.9661H26.5707L26.5173 64.3378V59.8933H28.546ZM29.5766 68.7022L32.673 59.8933H35.4224L38.5055 68.7022H36.1432L34.4214 63.0432L34.0344 61.6551H34.0077L33.6473 63.0298L31.8855 68.7022H29.5766ZM31.5919 66.7135V65.152H36.4902V66.7135H31.5919ZM43.2671 59.8933C44.6462 59.8933 45.7006 60.276 46.4303 61.0412C47.1688 61.8064 47.538 62.8919 47.538 64.2978C47.538 65.7036 47.1688 66.7892 46.4303 67.5544C45.7006 68.3196 44.6462 68.7022 43.2671 68.7022H39.53V59.8933H43.2671ZM43.0402 66.9671C43.7876 66.9671 44.3304 66.7447 44.6685 66.2998C45.0155 65.846 45.189 65.1787 45.189 64.2978C45.189 63.4169 45.0155 62.754 44.6685 62.3091C44.3304 61.8553 43.7876 61.6284 43.0402 61.6284H41.8256V66.9671H43.0402ZM47.8632 68.7022L50.9596 59.8933H53.709L56.7921 68.7022H54.4298L52.708 63.0432L52.321 61.6551H52.2943L51.9339 63.0298L50.1721 68.7022H47.8632ZM49.8785 66.7135V65.152H54.7768V66.7135H49.8785Z" fill="#FF5050"/>
</svg>
